<?xml version="1.0" encoding="UTF-8" standalone="no"?>
<!-- Created with Inkscape (http://www.inkscape.org/) -->

<svg
   version="1.1"
   id="svg53"
   width="2048"
   height="2048"
   viewBox="0 0 2048 2048"
   sodipodi:docname="Git_icon.svg"
   inkscape:version="1.2 (dc2aeda, 2022-05-15)"
   xmlns:inkscape="http://www.inkscape.org/namespaces/inkscape"
   xmlns:sodipodi="http://sodipodi.sourceforge.net/DTD/sodipodi-0.dtd"
   xmlns="http://www.w3.org/2000/svg"
   xmlns:svg="http://www.w3.org/2000/svg">
  <defs
     id="defs57" />
  <sodipodi:namedview
     id="namedview55"
     pagecolor="#ffffff"
     bordercolor="#000000"
     borderopacity="0.25"
     inkscape:showpageshadow="2"
     inkscape:pageopacity="0.0"
     inkscape:pagecheckerboard="0"
     inkscape:deskcolor="#d1d1d1"
     showgrid="false"
     inkscape:zoom="0.11523438"
     inkscape:cx="911.18644"
     inkscape:cy="1028.339"
     inkscape:window-width="1675"
     inkscape:window-height="1051"
     inkscape:window-x="53"
     inkscape:window-y="38"
     inkscape:window-maximized="1"
     inkscape:current-layer="g59" />
  <g
     inkscape:groupmode="layer"
     inkscape:label="Image"
     id="g59">
    <path
       style="fill:#000000"
       d="m 1010,1992.9129 c -20.58766,-2.64 -42.55223,-11.637 -59.16339,-24.2341 C 946.64562,1965.5006 758.44095,1777.9747 511.8822,1531.3076 49.579295,1068.8014 75.530122,1095.3106 66.455097,1076.2963 53.419106,1048.9829 50.690273,1018.589 58.59489,988.74882 61.742291,976.86728 71.141068,957.71643 78.838821,947.5 82.706742,942.36651 189.96629,834.4244 378.18445,646.24947 l 293.31789,-293.25054 109.84886,109.85226 109.84885,109.85226 -2.68952,7.39827 c -7.73434,21.27543 -10.46603,48.81583 -7.10398,71.62099 7.18455,48.73365 38.13428,91.05691 82.17597,112.37431 l 8.41748,4.07429 -0.033,266.16439 -0.033,266.1643 -8.71698,4.1728 c -25.78348,12.3426 -49.46849,34.5512 -64.07501,60.0809 -12.71011,22.2151 -19.12402,46.9834 -19.13608,73.8969 -0.0176,39.1691 15.0644,75.7814 42.72032,103.7059 21.28963,21.4964 46.81766,35.2929 77.27375,41.7622 15.0797,3.2031 41.9203,3.2031 57,0 31.3195,-6.6527 57.1607,-20.9748 79.0331,-43.8027 25.4994,-26.6134 39.212,-59.2768 40.645,-96.816 1.2385,-32.4461 -7.4857,-62.7349 -25.8452,-89.7295 -11.6132,-17.0753 -33.0906,-36.3404 -51.5829,-46.2695 l -5.25,-2.8189 v -263.341 C 1094,896.50348 1094.3383,778 1094.7519,778 1095.999,778 1294,976.41204 1294,977.6617 c 0,0.63687 -1.2987,5.13603 -2.8859,9.99812 -5.6185,17.21058 -6.5892,24.02418 -6.6022,46.34018 -0.01,16.0344 0.3829,22.3516 1.8005,29 12.9556,60.7614 58.4218,105.6181 119.2239,117.6256 12.4808,2.4648 40.4993,2.4935 52.9637,0.054 29.6602,-5.8044 54.5803,-18.5048 75.7772,-38.6195 22.3323,-21.1922 37.3736,-48.0423 43.9036,-78.372 3.2216,-14.963 3.2038,-43.7272 -0.036,-58.6884 C 1565.1967,945.2125 1521.5341,901.40392 1462,888.46699 c -4.3732,-0.95031 -14.6102,-1.85479 -24.5547,-2.1695 -18.776,-0.59421 -30.2458,0.67368 -45.1191,4.98754 l -8.1739,2.37074 L 1276.5911,786.07789 1169.03,678.5 l 1.9309,-6.5 c 4.278,-14.4008 5.4864,-23.83371 5.4444,-42.5 -0.058,-25.93753 -3.8044,-42.33635 -14.8481,-65 -7.2268,-14.83068 -15.9604,-26.90561 -28.5695,-39.5 -16.4879,-16.46854 -35.5176,-28.24757 -57.3434,-35.49453 -15.4302,-5.12338 -23.6647,-6.56244 -41.1443,-7.19038 -17.8726,-0.64206 -27.9183,0.35197 -43.6507,4.31923 L 980.69764,489.19429 869.34901,377.84902 758.00038,266.50374 848.25019,176.1831 C 905.17221,119.21641 941.63891,83.480187 947,79.411391 c 42.28739,-32.094 99.685,-33.591683 145.2605,-3.7903 5.7418,3.754477 96.572,94.017729 439.0471,436.306359 246.7921,246.65787 434.1914,434.71605 437.3712,438.90916 10.6474,14.04018 19.071,32.85368 23.0072,51.38509 2.4528,11.5472 2.4093,36.14 -0.084,47.7378 -3.7189,17.2968 -10.0151,32.2142 -19.8509,47.0326 -3.9744,5.9877 -92.2785,94.803 -436.1171,438.6416 -354.9624,354.9624 -432.5307,432.0617 -439.0406,436.3863 -26.0249,17.2888 -56.7979,24.7136 -86.5931,20.8929 z"
       id="path846" />
  </g>
</svg>
